<svg xmlns="http://www.w3.org/2000/svg" xmlns:xlink="http://www.w3.org/1999/xlink" width="400" viewBox="0 0 300 74.999997" height="100" preserveAspectRatio="xMidYMid meet"><defs><g></g><clipPath id="2ac3dcf31e"><path d="M 40.371094 4.726562 L 65 4.726562 L 65 6 L 40.371094 6 Z M 40.371094 4.726562 " clip-rule="nonzero"></path></clipPath><clipPath id="9ed6e9bdc1"><path d="M 40.371094 6 L 69 6 L 69 8 L 40.371094 8 Z M 40.371094 6 " clip-rule="nonzero"></path></clipPath><clipPath id="da3ba7fa84"><path d="M 40.371094 8 L 71 8 L 71 10 L 40.371094 10 Z M 40.371094 8 " clip-rule="nonzero"></path></clipPath><clipPath id="10c0f79ee6"><path d="M 40.371094 10 L 73 10 L 73 12 L 40.371094 12 Z M 40.371094 10 " clip-rule="nonzero"></path></clipPath><clipPath id="449b63131e"><path d="M 40.371094 12 L 74 12 L 74 14 L 40.371094 14 Z M 40.371094 12 " clip-rule="nonzero"></path></clipPath><clipPath id="aeeb96984b"><path d="M 40.371094 14 L 75 14 L 75 16 L 40.371094 16 Z M 40.371094 14 " clip-rule="nonzero"></path></clipPath><clipPath id="ee62cc57fb"><path d="M 40.371094 16 L 75 16 L 75 18 L 40.371094 18 Z M 40.371094 16 " clip-rule="nonzero"></path></clipPath><clipPath id="be467c3c54"><path d="M 40.371094 17 L 75 17 L 75 19 L 40.371094 19 Z M 40.371094 17 " clip-rule="nonzero"></path></clipPath><clipPath id="d2636aafaa"><path d="M 40.371094 19 L 75 19 L 75 21 L 40.371094 21 Z M 40.371094 19 " clip-rule="nonzero"></path></clipPath><clipPath id="6b6c843e72"><path d="M 40.371094 21 L 75 21 L 75 23 L 40.371094 23 Z M 40.371094 21 " clip-rule="nonzero"></path></clipPath><clipPath id="bd87b671f5"><path d="M 40.371094 23 L 75 23 L 75 25 L 40.371094 25 Z M 40.371094 23 " clip-rule="nonzero"></path></clipPath><clipPath id="bae0e9f324"><path d="M 40.371094 25 L 74 25 L 74 27 L 40.371094 27 Z M 40.371094 25 " clip-rule="nonzero"></path></clipPath><clipPath id="6a0e32aa67"><path d="M 40.371094 27 L 74 27 L 74 29 L 40.371094 29 Z M 40.371094 27 " clip-rule="nonzero"></path></clipPath><clipPath id="7a72f9fa61"><path d="M 40.371094 29 L 73 29 L 73 31 L 40.371094 31 Z M 40.371094 29 " clip-rule="nonzero"></path></clipPath><clipPath id="157774c9fd"><path d="M 40.371094 31 L 71 31 L 71 33 L 40.371094 33 Z M 40.371094 31 " clip-rule="nonzero"></path></clipPath><clipPath id="8459724530"><path d="M 40.371094 33 L 69 33 L 69 35 L 40.371094 35 Z M 40.371094 33 " clip-rule="nonzero"></path></clipPath><clipPath id="b8d7d9f159"><path d="M 40.371094 35 L 65 35 L 65 36 L 40.371094 36 Z M 40.371094 35 " clip-rule="nonzero"></path></clipPath><clipPath id="05be3f4f95"><path d="M 12 38.910156 L 37.019531 38.910156 L 37.019531 40 L 12 40 Z M 12 38.910156 " clip-rule="nonzero"></path></clipPath><clipPath id="f9d92cc7ea"><path d="M 6 42 L 37.019531 42 L 37.019531 44 L 6 44 Z M 6 42 " clip-rule="nonzero"></path></clipPath><clipPath id="87a293157c"><path d="M 3 48 L 37.019531 48 L 37.019531 50 L 3 50 Z M 3 48 " clip-rule="nonzero"></path></clipPath><clipPath id="b9608d6e9b"><path d="M 2.476562 50 L 37 50 L 37 52 L 2.476562 52 Z M 2.476562 50 " clip-rule="nonzero"></path></clipPath><clipPath id="75ab3c3f67"><path d="M 2.476562 52 L 37 52 L 37 54 L 2.476562 54 Z M 2.476562 52 " clip-rule="nonzero"></path></clipPath><clipPath id="16167f3c9c"><path d="M 2.476562 54 L 37.019531 54 L 37.019531 56 L 2.476562 56 Z M 2.476562 54 " clip-rule="nonzero"></path></clipPath><clipPath id="d4c43e3c73"><path d="M 2.476562 55 L 37.019531 55 L 37.019531 57 L 2.476562 57 Z M 2.476562 55 " clip-rule="nonzero"></path></clipPath><clipPath id="b5321f1aed"><path d="M 2.476562 57 L 37.019531 57 L 37.019531 59 L 2.476562 59 Z M 2.476562 57 " clip-rule="nonzero"></path></clipPath><clipPath id="24e064d5af"><path d="M 3 59 L 37.019531 59 L 37.019531 61 L 3 61 Z M 3 59 " clip-rule="nonzero"></path></clipPath><clipPath id="6a9c84b90d"><path d="M 4 61 L 37.019531 61 L 37.019531 63 L 4 63 Z M 4 61 " clip-rule="nonzero"></path></clipPath><clipPath id="7fa06be567"><path d="M 5 63 L 37.019531 63 L 37.019531 65 L 5 65 Z M 5 63 " clip-rule="nonzero"></path></clipPath><clipPath id="888db7943d"><path d="M 6 65 L 37.019531 65 L 37.019531 67 L 6 67 Z M 6 65 " clip-rule="nonzero"></path></clipPath><clipPath id="da4016ddeb"><path d="M 9 67 L 37.019531 67 L 37.019531 69 L 9 69 Z M 9 67 " clip-rule="nonzero"></path></clipPath><clipPath id="6194defa3a"><path d="M 12 69 L 37.019531 69 L 37.019531 71 L 12 71 Z M 12 69 " clip-rule="nonzero"></path></clipPath><clipPath id="e61cbd0207"><path d="M 36 11 L 37.023438 11 L 37.023438 35.996094 L 36 35.996094 Z M 36 11 " clip-rule="nonzero"></path></clipPath><clipPath id="36edf0b301"><path d="M 34 8 L 36 8 L 36 35.996094 L 34 35.996094 Z M 34 8 " clip-rule="nonzero"></path></clipPath><clipPath id="43d3228ba3"><path d="M 32 5 L 34 5 L 34 35.996094 L 32 35.996094 Z M 32 5 " clip-rule="nonzero"></path></clipPath><clipPath id="6714bac171"><path d="M 30 4 L 32 4 L 32 35.996094 L 30 35.996094 Z M 30 4 " clip-rule="nonzero"></path></clipPath><clipPath id="0f87213263"><path d="M 28 3 L 30 3 L 30 35.996094 L 28 35.996094 Z M 28 3 " clip-rule="nonzero"></path></clipPath><clipPath id="f128a212e7"><path d="M 26 2 L 28 2 L 28 35.996094 L 26 35.996094 Z M 26 2 " clip-rule="nonzero"></path></clipPath><clipPath id="022aef417f"><path d="M 24 1.453125 L 26 1.453125 L 26 35.996094 L 24 35.996094 Z M 24 1.453125 " clip-rule="nonzero"></path></clipPath><clipPath id="4f19ce08d1"><path d="M 22 1.453125 L 24 1.453125 L 24 35.996094 L 22 35.996094 Z M 22 1.453125 " clip-rule="nonzero"></path></clipPath><clipPath id="53dcff7664"><path d="M 20 1.453125 L 22 1.453125 L 22 35.996094 L 20 35.996094 Z M 20 1.453125 " clip-rule="nonzero"></path></clipPath><clipPath id="a6e27f4f11"><path d="M 19 1.453125 L 20 1.453125 L 20 35.996094 L 19 35.996094 Z M 19 1.453125 " clip-rule="nonzero"></path></clipPath><clipPath id="9e0f6d3c4b"><path d="M 17 1.453125 L 19 1.453125 L 19 35.996094 L 17 35.996094 Z M 17 1.453125 " clip-rule="nonzero"></path></clipPath><clipPath id="8f594610cd"><path d="M 15 2 L 17 2 L 17 35.996094 L 15 35.996094 Z M 15 2 " clip-rule="nonzero"></path></clipPath><clipPath id="c5d755fca2"><path d="M 13 3 L 15 3 L 15 35.996094 L 13 35.996094 Z M 13 3 " clip-rule="nonzero"></path></clipPath><clipPath id="084cc9d266"><path d="M 11 4 L 13 4 L 13 35.996094 L 11 35.996094 Z M 11 4 " clip-rule="nonzero"></path></clipPath><clipPath id="6fff1a6002"><path d="M 9 5 L 11 5 L 11 35.996094 L 9 35.996094 Z M 9 5 " clip-rule="nonzero"></path></clipPath><clipPath id="73258843cb"><path d="M 7 8 L 9 8 L 9 35.996094 L 7 35.996094 Z M 7 8 " clip-rule="nonzero"></path></clipPath><clipPath id="47cd9bf587"><path d="M 5 11 L 7 11 L 7 35.996094 L 5 35.996094 Z M 5 11 " clip-rule="nonzero"></path></clipPath><clipPath id="080a9d8f5c"><path d="M 40.371094 38.910156 L 42 38.910156 L 42 64 L 40.371094 64 Z M 40.371094 38.910156 " clip-rule="nonzero"></path></clipPath><clipPath id="ed9a80861a"><path d="M 42 38.910156 L 44 38.910156 L 44 67 L 42 67 Z M 42 38.910156 " clip-rule="nonzero"></path></clipPath><clipPath id="dd736e6b86"><path d="M 44 38.910156 L 46 38.910156 L 46 70 L 44 70 Z M 44 38.910156 " clip-rule="nonzero"></path></clipPath><clipPath id="26ae61a16e"><path d="M 46 38.910156 L 47 38.910156 L 47 71 L 46 71 Z M 46 38.910156 " clip-rule="nonzero"></path></clipPath><clipPath id="4a60c34add"><path d="M 47 38.910156 L 49 38.910156 L 49 72 L 47 72 Z M 47 38.910156 " clip-rule="nonzero"></path></clipPath><clipPath id="ae6e4f0bf8"><path d="M 49 38.910156 L 51 38.910156 L 51 73 L 49 73 Z M 49 38.910156 " clip-rule="nonzero"></path></clipPath><clipPath id="e945f1380b"><path d="M 51 38.910156 L 53 38.910156 L 53 73.820312 L 51 73.820312 Z M 51 38.910156 " clip-rule="nonzero"></path></clipPath><clipPath id="f4c41bf461"><path d="M 53 38.910156 L 55 38.910156 L 55 73.820312 L 53 73.820312 Z M 53 38.910156 " clip-rule="nonzero"></path></clipPath><clipPath id="6e80112a10"><path d="M 55 38.910156 L 57 38.910156 L 57 73.820312 L 55 73.820312 Z M 55 38.910156 " clip-rule="nonzero"></path></clipPath><clipPath id="0490e0ca9f"><path d="M 57 38.910156 L 59 38.910156 L 59 73.820312 L 57 73.820312 Z M 57 38.910156 " clip-rule="nonzero"></path></clipPath><clipPath id="920f74a39f"><path d="M 59 38.910156 L 61 38.910156 L 61 73.820312 L 59 73.820312 Z M 59 38.910156 " clip-rule="nonzero"></path></clipPath><clipPath id="79f3fe7139"><path d="M 61 38.910156 L 63 38.910156 L 63 73 L 61 73 Z M 61 38.910156 " clip-rule="nonzero"></path></clipPath><clipPath id="3d990ef195"><path d="M 63 38.910156 L 65 38.910156 L 65 72 L 63 72 Z M 63 38.910156 " clip-rule="nonzero"></path></clipPath><clipPath id="9206dd81a2"><path d="M 65 38.910156 L 66 38.910156 L 66 71 L 65 71 Z M 65 38.910156 " clip-rule="nonzero"></path></clipPath><clipPath id="ab556a5562"><path d="M 66 38.910156 L 68 38.910156 L 68 70 L 66 70 Z M 66 38.910156 " clip-rule="nonzero"></path></clipPath><clipPath id="d67823450e"><path d="M 68 38.910156 L 70 38.910156 L 70 67 L 68 67 Z M 68 38.910156 " clip-rule="nonzero"></path></clipPath><clipPath id="82a3d0cab5"><path d="M 70 38.910156 L 71.644531 38.910156 L 71.644531 64 L 70 64 Z M 70 38.910156 " clip-rule="nonzero"></path></clipPath></defs><g clip-path="url(#2ac3dcf31e)"><path fill="#005153" d="M 64.632812 5.667969 C 62.953125 5.050781 61.148438 4.726562 59.253906 4.726562 L 40.382812 4.726562 L 40.382812 5.667969 Z M 64.632812 5.667969 " fill-opacity="1" fill-rule="nonzero"></path></g><g clip-path="url(#9ed6e9bdc1)"><path fill="#005153" d="M 68.257812 7.554688 C 67.773438 7.214844 67.265625 6.890625 66.734375 6.613281 L 40.394531 6.613281 L 40.394531 7.554688 Z M 68.257812 7.554688 " fill-opacity="1" fill-rule="nonzero"></path></g><g clip-path="url(#da3ba7fa84)"><path fill="#005153" d="M 70.46875 9.453125 C 70.144531 9.125 69.816406 8.800781 69.46875 8.507812 L 40.382812 8.507812 L 40.382812 9.453125 Z M 70.46875 9.453125 " fill-opacity="1" fill-rule="nonzero"></path></g><g clip-path="url(#10c0f79ee6)"><path fill="#005153" d="M 72.054688 11.351562 C 71.824219 11.023438 71.582031 10.710938 71.328125 10.40625 L 40.394531 10.40625 L 40.394531 11.351562 Z M 72.054688 11.351562 " fill-opacity="1" fill-rule="nonzero"></path></g><g clip-path="url(#449b63131e)"><path fill="#005153" d="M 73.191406 13.25 C 73.019531 12.921875 72.851562 12.609375 72.660156 12.304688 L 40.394531 12.304688 L 40.394531 13.25 Z M 73.191406 13.25 " fill-opacity="1" fill-rule="nonzero"></path></g><g clip-path="url(#aeeb96984b)"><path fill="#005153" d="M 74.011719 15.144531 C 73.902344 14.820312 73.769531 14.503906 73.636719 14.203125 L 40.382812 14.203125 L 40.382812 15.144531 Z M 74.011719 15.144531 " fill-opacity="1" fill-rule="nonzero"></path></g><g clip-path="url(#ee62cc57fb)"><path fill="#005153" d="M 74.542969 17.03125 C 74.472656 16.71875 74.398438 16.390625 74.316406 16.089844 L 40.394531 16.089844 L 40.394531 17.03125 Z M 74.542969 17.03125 " fill-opacity="1" fill-rule="nonzero"></path></g><g clip-path="url(#be467c3c54)"><path fill="#005153" d="M 74.835938 18.929688 C 74.808594 18.617188 74.773438 18.289062 74.726562 17.988281 L 40.394531 17.988281 L 40.394531 18.929688 Z M 74.835938 18.929688 " fill-opacity="1" fill-rule="nonzero"></path></g><g clip-path="url(#d2636aafaa)"><path fill="#005153" d="M 74.894531 19.886719 L 40.382812 19.886719 L 40.382812 20.828125 L 74.882812 20.828125 C 74.882812 20.671875 74.894531 20.511719 74.894531 20.355469 C 74.90625 20.199219 74.894531 20.042969 74.894531 19.886719 Z M 74.894531 19.886719 " fill-opacity="1" fill-rule="nonzero"></path></g><g clip-path="url(#6b6c843e72)"><path fill="#005153" d="M 40.382812 21.769531 L 40.382812 22.714844 L 74.714844 22.714844 C 74.761719 22.398438 74.796875 22.085938 74.824219 21.769531 Z M 40.382812 21.769531 " fill-opacity="1" fill-rule="nonzero"></path></g><g clip-path="url(#bd87b671f5)"><path fill="#005153" d="M 40.382812 23.667969 L 40.382812 24.613281 L 74.300781 24.613281 C 74.386719 24.296875 74.472656 23.984375 74.53125 23.667969 Z M 40.382812 23.667969 " fill-opacity="1" fill-rule="nonzero"></path></g><g clip-path="url(#bae0e9f324)"><path fill="#005153" d="M 40.382812 25.566406 L 40.382812 26.507812 L 73.625 26.507812 C 73.757812 26.195312 73.878906 25.882812 74 25.566406 Z M 40.382812 25.566406 " fill-opacity="1" fill-rule="nonzero"></path></g><g clip-path="url(#6a0e32aa67)"><path fill="#005153" d="M 40.382812 27.464844 L 40.382812 28.40625 L 72.671875 28.40625 C 72.851562 28.09375 73.035156 27.777344 73.203125 27.464844 Z M 40.382812 27.464844 " fill-opacity="1" fill-rule="nonzero"></path></g><g clip-path="url(#7a72f9fa61)"><path fill="#005153" d="M 40.382812 29.363281 L 40.382812 30.304688 L 71.328125 30.304688 C 71.582031 30.003906 71.824219 29.675781 72.054688 29.363281 Z M 40.382812 29.363281 " fill-opacity="1" fill-rule="nonzero"></path></g><g clip-path="url(#157774c9fd)"><path fill="#005153" d="M 40.382812 31.25 L 40.382812 32.191406 L 69.46875 32.191406 C 69.816406 31.890625 70.15625 31.574219 70.46875 31.25 Z M 40.382812 31.25 " fill-opacity="1" fill-rule="nonzero"></path></g><g clip-path="url(#8459724530)"><path fill="#005153" d="M 40.382812 33.144531 L 40.382812 34.089844 L 66.734375 34.089844 C 67.265625 33.800781 67.773438 33.484375 68.257812 33.144531 Z M 40.382812 33.144531 " fill-opacity="1" fill-rule="nonzero"></path></g><g clip-path="url(#b8d7d9f159)"><path fill="#005153" d="M 40.382812 35.042969 L 40.382812 35.988281 L 58.816406 35.988281 C 58.960938 35.988281 59.105469 36 59.253906 36 C 59.398438 36 59.542969 36 59.6875 35.988281 C 61.429688 35.9375 63.085938 35.613281 64.644531 35.042969 Z M 40.382812 35.042969 " fill-opacity="1" fill-rule="nonzero"></path></g><g clip-path="url(#05be3f4f95)"><path fill="#005153" d="M 12.761719 39.851562 C 14.441406 39.238281 16.242188 38.910156 18.140625 38.910156 L 37.011719 38.910156 L 37.011719 39.851562 Z M 12.761719 39.851562 " fill-opacity="1" fill-rule="nonzero"></path></g><path fill="#005153" d="M 9.132812 41.738281 C 9.617188 41.402344 10.125 41.074219 10.65625 40.796875 L 37 40.796875 L 37 41.738281 Z M 9.132812 41.738281 " fill-opacity="1" fill-rule="nonzero"></path><g clip-path="url(#f9d92cc7ea)"><path fill="#005153" d="M 6.921875 43.636719 C 7.25 43.3125 7.574219 42.984375 7.925781 42.695312 L 37.011719 42.695312 L 37.011719 43.636719 Z M 6.921875 43.636719 " fill-opacity="1" fill-rule="nonzero"></path></g><path fill="#005153" d="M 5.339844 45.535156 C 5.566406 45.207031 5.808594 44.894531 6.0625 44.59375 L 37 44.59375 L 37 45.535156 Z M 5.339844 45.535156 " fill-opacity="1" fill-rule="nonzero"></path><path fill="#005153" d="M 4.203125 47.433594 C 4.371094 47.105469 4.539062 46.792969 4.734375 46.488281 L 37 46.488281 L 37 47.433594 Z M 4.203125 47.433594 " fill-opacity="1" fill-rule="nonzero"></path><g clip-path="url(#87a293157c)"><path fill="#005153" d="M 3.378906 49.332031 C 3.488281 49.003906 3.621094 48.691406 3.753906 48.386719 L 37.011719 48.386719 L 37.011719 49.332031 Z M 3.378906 49.332031 " fill-opacity="1" fill-rule="nonzero"></path></g><g clip-path="url(#b9608d6e9b)"><path fill="#005153" d="M 2.847656 51.214844 C 2.921875 50.902344 2.992188 50.574219 3.078125 50.273438 L 37 50.273438 L 37 51.214844 Z M 2.847656 51.214844 " fill-opacity="1" fill-rule="nonzero"></path></g><g clip-path="url(#75ab3c3f67)"><path fill="#005153" d="M 2.558594 53.113281 C 2.582031 52.800781 2.617188 52.472656 2.667969 52.171875 L 37 52.171875 L 37 53.113281 Z M 2.558594 53.113281 " fill-opacity="1" fill-rule="nonzero"></path></g><g clip-path="url(#16167f3c9c)"><path fill="#005153" d="M 2.496094 54.070312 L 37.011719 54.070312 L 37.011719 55.011719 L 2.507812 55.011719 C 2.507812 54.855469 2.496094 54.699219 2.496094 54.539062 C 2.484375 54.382812 2.496094 54.226562 2.496094 54.070312 Z M 2.496094 54.070312 " fill-opacity="1" fill-rule="nonzero"></path></g><g clip-path="url(#d4c43e3c73)"><path fill="#005153" d="M 37.011719 55.957031 L 37.011719 56.898438 L 2.679688 56.898438 C 2.628906 56.582031 2.59375 56.269531 2.570312 55.957031 Z M 37.011719 55.957031 " fill-opacity="1" fill-rule="nonzero"></path></g><g clip-path="url(#b5321f1aed)"><path fill="#005153" d="M 37.011719 57.851562 L 37.011719 58.796875 L 3.089844 58.796875 C 3.003906 58.480469 2.921875 58.167969 2.859375 57.851562 Z M 37.011719 57.851562 " fill-opacity="1" fill-rule="nonzero"></path></g><g clip-path="url(#24e064d5af)"><path fill="#005153" d="M 37.011719 59.75 L 37.011719 60.695312 L 3.765625 60.695312 C 3.632812 60.378906 3.511719 60.066406 3.390625 59.75 Z M 37.011719 59.75 " fill-opacity="1" fill-rule="nonzero"></path></g><g clip-path="url(#6a9c84b90d)"><path fill="#005153" d="M 37.011719 61.648438 L 37.011719 62.59375 L 4.722656 62.59375 C 4.539062 62.277344 4.359375 61.964844 4.191406 61.648438 Z M 37.011719 61.648438 " fill-opacity="1" fill-rule="nonzero"></path></g><g clip-path="url(#7fa06be567)"><path fill="#005153" d="M 37.011719 63.546875 L 37.011719 64.488281 L 6.0625 64.488281 C 5.808594 64.1875 5.566406 63.859375 5.339844 63.546875 Z M 37.011719 63.546875 " fill-opacity="1" fill-rule="nonzero"></path></g><g clip-path="url(#888db7943d)"><path fill="#005153" d="M 37.011719 65.433594 L 37.011719 66.375 L 7.925781 66.375 C 7.574219 66.074219 7.234375 65.757812 6.921875 65.433594 Z M 37.011719 65.433594 " fill-opacity="1" fill-rule="nonzero"></path></g><g clip-path="url(#da4016ddeb)"><path fill="#005153" d="M 37.011719 67.332031 L 37.011719 68.273438 L 10.65625 68.273438 C 10.125 67.984375 9.617188 67.667969 9.132812 67.332031 Z M 37.011719 67.332031 " fill-opacity="1" fill-rule="nonzero"></path></g><g clip-path="url(#6194defa3a)"><path fill="#005153" d="M 37.011719 69.230469 L 37.011719 70.171875 L 18.574219 70.171875 C 18.429688 70.171875 18.285156 70.183594 18.140625 70.183594 C 17.996094 70.183594 17.851562 70.183594 17.703125 70.171875 C 15.964844 70.125 14.308594 69.796875 12.75 69.230469 Z M 37.011719 69.230469 " fill-opacity="1" fill-rule="nonzero"></path></g><g clip-path="url(#e61cbd0207)"><path fill="#005153" d="M 36.078125 11.738281 C 36.695312 13.417969 37.023438 15.21875 37.023438 17.117188 L 37.023438 35.988281 L 36.078125 35.988281 Z M 36.078125 11.738281 " fill-opacity="1" fill-rule="nonzero"></path></g><g clip-path="url(#36edf0b301)"><path fill="#005153" d="M 34.191406 8.109375 C 34.53125 8.59375 34.859375 9.101562 35.136719 9.632812 L 35.136719 35.976562 L 34.191406 35.976562 Z M 34.191406 8.109375 " fill-opacity="1" fill-rule="nonzero"></path></g><g clip-path="url(#43d3228ba3)"><path fill="#005153" d="M 32.296875 5.898438 C 32.621094 6.226562 32.949219 6.550781 33.238281 6.902344 L 33.238281 35.988281 L 32.296875 35.988281 Z M 32.296875 5.898438 " fill-opacity="1" fill-rule="nonzero"></path></g><g clip-path="url(#6714bac171)"><path fill="#005153" d="M 30.398438 4.316406 C 30.722656 4.546875 31.039062 4.785156 31.339844 5.039062 L 31.339844 35.976562 L 30.398438 35.976562 Z M 30.398438 4.316406 " fill-opacity="1" fill-rule="nonzero"></path></g><g clip-path="url(#0f87213263)"><path fill="#005153" d="M 28.5 3.179688 C 28.824219 3.347656 29.140625 3.515625 29.441406 3.710938 L 29.441406 35.976562 L 28.5 35.976562 Z M 28.5 3.179688 " fill-opacity="1" fill-rule="nonzero"></path></g><g clip-path="url(#f128a212e7)"><path fill="#005153" d="M 26.601562 2.355469 C 26.929688 2.464844 27.242188 2.597656 27.542969 2.730469 L 27.542969 35.988281 L 26.601562 35.988281 Z M 26.601562 2.355469 " fill-opacity="1" fill-rule="nonzero"></path></g><g clip-path="url(#022aef417f)"><path fill="#005153" d="M 24.714844 1.824219 C 25.03125 1.898438 25.355469 1.96875 25.660156 2.054688 L 25.660156 35.976562 L 24.714844 35.976562 Z M 24.714844 1.824219 " fill-opacity="1" fill-rule="nonzero"></path></g><g clip-path="url(#4f19ce08d1)"><path fill="#005153" d="M 22.816406 1.535156 C 23.132812 1.558594 23.457031 1.59375 23.761719 1.644531 L 23.761719 35.976562 L 22.816406 35.976562 Z M 22.816406 1.535156 " fill-opacity="1" fill-rule="nonzero"></path></g><g clip-path="url(#53dcff7664)"><path fill="#005153" d="M 21.863281 1.472656 L 21.863281 35.988281 L 20.917969 35.988281 L 20.917969 1.488281 C 21.078125 1.488281 21.234375 1.472656 21.390625 1.472656 C 21.546875 1.460938 21.707031 1.472656 21.863281 1.472656 Z M 21.863281 1.472656 " fill-opacity="1" fill-rule="nonzero"></path></g><g clip-path="url(#a6e27f4f11)"><path fill="#005153" d="M 19.976562 35.988281 L 19.035156 35.988281 L 19.035156 1.65625 C 19.347656 1.609375 19.664062 1.570312 19.976562 1.546875 Z M 19.976562 35.988281 " fill-opacity="1" fill-rule="nonzero"></path></g><g clip-path="url(#9e0f6d3c4b)"><path fill="#005153" d="M 18.078125 35.988281 L 17.136719 35.988281 L 17.136719 2.066406 C 17.449219 1.980469 17.765625 1.898438 18.078125 1.835938 Z M 18.078125 35.988281 " fill-opacity="1" fill-rule="nonzero"></path></g><g clip-path="url(#8f594610cd)"><path fill="#005153" d="M 16.179688 35.988281 L 15.238281 35.988281 L 15.238281 2.742188 C 15.550781 2.609375 15.867188 2.488281 16.179688 2.371094 Z M 16.179688 35.988281 " fill-opacity="1" fill-rule="nonzero"></path></g><g clip-path="url(#c5d755fca2)"><path fill="#005153" d="M 14.285156 35.988281 L 13.339844 35.988281 L 13.339844 3.699219 C 13.65625 3.515625 13.96875 3.335938 14.285156 3.167969 Z M 14.285156 35.988281 " fill-opacity="1" fill-rule="nonzero"></path></g><g clip-path="url(#084cc9d266)"><path fill="#005153" d="M 12.386719 35.988281 L 11.441406 35.988281 L 11.441406 5.039062 C 11.746094 4.785156 12.070312 4.546875 12.386719 4.316406 Z M 12.386719 35.988281 " fill-opacity="1" fill-rule="nonzero"></path></g><g clip-path="url(#6fff1a6002)"><path fill="#005153" d="M 10.5 35.988281 L 9.554688 35.988281 L 9.554688 6.902344 C 9.859375 6.550781 10.171875 6.214844 10.5 5.898438 Z M 10.5 35.988281 " fill-opacity="1" fill-rule="nonzero"></path></g><g clip-path="url(#73258843cb)"><path fill="#005153" d="M 8.601562 35.988281 L 7.660156 35.988281 L 7.660156 9.632812 C 7.949219 9.101562 8.261719 8.59375 8.601562 8.109375 Z M 8.601562 35.988281 " fill-opacity="1" fill-rule="nonzero"></path></g><g clip-path="url(#47cd9bf587)"><path fill="#005153" d="M 6.703125 35.988281 L 5.761719 35.988281 L 5.761719 17.550781 C 5.761719 17.40625 5.75 17.261719 5.75 17.117188 C 5.75 16.972656 5.75 16.828125 5.761719 16.683594 C 5.808594 14.941406 6.136719 13.285156 6.703125 11.726562 Z M 6.703125 35.988281 " fill-opacity="1" fill-rule="nonzero"></path></g><g clip-path="url(#080a9d8f5c)"><path fill="#005153" d="M 41.3125 63.171875 C 40.695312 61.492188 40.371094 59.691406 40.371094 57.792969 L 40.371094 38.921875 L 41.3125 38.921875 Z M 41.3125 63.171875 " fill-opacity="1" fill-rule="nonzero"></path></g><g clip-path="url(#ed9a80861a)"><path fill="#005153" d="M 43.199219 66.796875 C 42.859375 66.316406 42.535156 65.808594 42.257812 65.273438 L 42.257812 38.933594 L 43.199219 38.933594 Z M 43.199219 66.796875 " fill-opacity="1" fill-rule="nonzero"></path></g><g clip-path="url(#dd736e6b86)"><path fill="#005153" d="M 45.097656 69.011719 C 44.769531 68.683594 44.445312 68.359375 44.15625 68.007812 L 44.15625 38.921875 L 45.097656 38.921875 Z M 45.097656 69.011719 " fill-opacity="1" fill-rule="nonzero"></path></g><g clip-path="url(#26ae61a16e)"><path fill="#005153" d="M 46.996094 70.59375 C 46.667969 70.363281 46.355469 70.121094 46.050781 69.867188 L 46.050781 38.933594 L 46.996094 38.933594 Z M 46.996094 70.59375 " fill-opacity="1" fill-rule="nonzero"></path></g><g clip-path="url(#4a60c34add)"><path fill="#005153" d="M 48.894531 71.730469 C 48.566406 71.5625 48.253906 71.390625 47.949219 71.199219 L 47.949219 38.933594 L 48.894531 38.933594 Z M 48.894531 71.730469 " fill-opacity="1" fill-rule="nonzero"></path></g><g clip-path="url(#ae6e4f0bf8)"><path fill="#005153" d="M 50.789062 72.550781 C 50.464844 72.445312 50.148438 72.3125 49.847656 72.175781 L 49.847656 38.921875 L 50.789062 38.921875 Z M 50.789062 72.550781 " fill-opacity="1" fill-rule="nonzero"></path></g><g clip-path="url(#e945f1380b)"><path fill="#005153" d="M 52.675781 73.085938 C 52.363281 73.011719 52.035156 72.9375 51.734375 72.855469 L 51.734375 38.933594 L 52.675781 38.933594 Z M 52.675781 73.085938 " fill-opacity="1" fill-rule="nonzero"></path></g><g clip-path="url(#f4c41bf461)"><path fill="#005153" d="M 54.574219 73.375 C 54.261719 73.351562 53.933594 73.3125 53.632812 73.265625 L 53.632812 38.933594 L 54.574219 38.933594 Z M 54.574219 73.375 " fill-opacity="1" fill-rule="nonzero"></path></g><g clip-path="url(#6e80112a10)"><path fill="#005153" d="M 55.53125 73.433594 L 55.53125 38.921875 L 56.472656 38.921875 L 56.472656 73.421875 C 56.316406 73.421875 56.160156 73.433594 56 73.433594 C 55.84375 73.445312 55.6875 73.433594 55.53125 73.433594 Z M 55.53125 73.433594 " fill-opacity="1" fill-rule="nonzero"></path></g><g clip-path="url(#0490e0ca9f)"><path fill="#005153" d="M 57.414062 38.921875 L 58.359375 38.921875 L 58.359375 73.253906 C 58.042969 73.300781 57.730469 73.339844 57.414062 73.363281 Z M 57.414062 38.921875 " fill-opacity="1" fill-rule="nonzero"></path></g><g clip-path="url(#920f74a39f)"><path fill="#005153" d="M 59.3125 38.921875 L 60.257812 38.921875 L 60.257812 72.84375 C 59.941406 72.925781 59.628906 73.011719 59.3125 73.070312 Z M 59.3125 38.921875 " fill-opacity="1" fill-rule="nonzero"></path></g><g clip-path="url(#79f3fe7139)"><path fill="#005153" d="M 61.210938 38.921875 L 62.152344 38.921875 L 62.152344 72.164062 C 61.839844 72.296875 61.527344 72.417969 61.210938 72.539062 Z M 61.210938 38.921875 " fill-opacity="1" fill-rule="nonzero"></path></g><g clip-path="url(#3d990ef195)"><path fill="#005153" d="M 63.109375 38.921875 L 64.050781 38.921875 L 64.050781 71.210938 C 63.738281 71.390625 63.421875 71.574219 63.109375 71.742188 Z M 63.109375 38.921875 " fill-opacity="1" fill-rule="nonzero"></path></g><g clip-path="url(#9206dd81a2)"><path fill="#005153" d="M 65.007812 38.921875 L 65.949219 38.921875 L 65.949219 69.867188 C 65.648438 70.121094 65.320312 70.363281 65.007812 70.59375 Z M 65.007812 38.921875 " fill-opacity="1" fill-rule="nonzero"></path></g><g clip-path="url(#ab556a5562)"><path fill="#005153" d="M 66.894531 38.921875 L 67.835938 38.921875 L 67.835938 68.007812 C 67.535156 68.359375 67.21875 68.695312 66.894531 69.011719 Z M 66.894531 38.921875 " fill-opacity="1" fill-rule="nonzero"></path></g><g clip-path="url(#d67823450e)"><path fill="#005153" d="M 68.789062 38.921875 L 69.734375 38.921875 L 69.734375 65.273438 C 69.445312 65.808594 69.128906 66.316406 68.789062 66.796875 Z M 68.789062 38.921875 " fill-opacity="1" fill-rule="nonzero"></path></g><g clip-path="url(#82a3d0cab5)"><path fill="#005153" d="M 70.6875 38.921875 L 71.632812 38.921875 L 71.632812 57.355469 C 71.632812 57.503906 71.644531 57.648438 71.644531 57.792969 C 71.644531 57.9375 71.644531 58.082031 71.632812 58.226562 C 71.582031 59.96875 71.257812 61.625 70.6875 63.183594 Z M 70.6875 38.921875 " fill-opacity="1" fill-rule="nonzero"></path></g><g fill="#005153" fill-opacity="1"><g transform="translate(89.536309, 35.757364)"><g><path d="M 17.796875 -27.59375 L 17.796875 -22.078125 L 8.296875 -22.078125 L 8.296875 -16.59375 L 17.390625 -16.59375 L 17.390625 -11.078125 L 8.296875 -11.078125 L 8.296875 -5.515625 L 17.796875 -5.515625 L 17.796875 0 L 2 0 L 2 -27.59375 Z M 17.796875 -27.59375 "></path></g></g></g><g fill="#005153" fill-opacity="1"><g transform="translate(108.943109, 35.757364)"><g><path d="M 16.03125 -27.59375 L 27.15625 0 L 20.40625 0 L 18.359375 -5.515625 L 7.859375 -5.515625 L 5.828125 0 L -0.9375 0 L 10.203125 -27.59375 Z M 16.21875 -11.046875 L 13.140625 -19.0625 L 13.078125 -19.0625 L 10 -11.046875 Z M 16.21875 -11.046875 "></path></g></g></g><g fill="#005153" fill-opacity="1"><g transform="translate(135.175767, 35.757364)"><g><path d="M 16.6875 -5.6875 C 17.644531 -5.6875 18.578125 -5.832031 19.484375 -6.125 C 20.390625 -6.414062 21.054688 -6.691406 21.484375 -6.953125 L 22.109375 -7.390625 L 24.78125 -2.046875 C 24.695312 -1.972656 24.578125 -1.878906 24.421875 -1.765625 C 24.265625 -1.660156 23.898438 -1.457031 23.328125 -1.15625 C 22.765625 -0.851562 22.160156 -0.585938 21.515625 -0.359375 C 20.867188 -0.140625 20.019531 0.0546875 18.96875 0.234375 C 17.914062 0.410156 16.832031 0.5 15.71875 0.5 C 13.15625 0.5 10.722656 -0.128906 8.421875 -1.390625 C 6.128906 -2.648438 4.28125 -4.382812 2.875 -6.59375 C 1.46875 -8.800781 0.765625 -11.1875 0.765625 -13.75 C 0.765625 -15.6875 1.175781 -17.546875 2 -19.328125 C 2.832031 -21.117188 3.929688 -22.648438 5.296875 -23.921875 C 6.671875 -25.191406 8.269531 -26.203125 10.09375 -26.953125 C 11.925781 -27.710938 13.800781 -28.09375 15.71875 -28.09375 C 17.507812 -28.09375 19.15625 -27.878906 20.65625 -27.453125 C 22.164062 -27.035156 23.234375 -26.613281 23.859375 -26.1875 L 24.78125 -25.5625 L 22.109375 -20.203125 C 21.953125 -20.335938 21.71875 -20.5 21.40625 -20.6875 C 21.09375 -20.875 20.46875 -21.125 19.53125 -21.4375 C 18.59375 -21.75 17.644531 -21.90625 16.6875 -21.90625 C 15.175781 -21.90625 13.816406 -21.660156 12.609375 -21.171875 C 11.410156 -20.679688 10.457031 -20.035156 9.75 -19.234375 C 9.050781 -18.429688 8.515625 -17.566406 8.140625 -16.640625 C 7.773438 -15.710938 7.59375 -14.769531 7.59375 -13.8125 C 7.59375 -11.71875 8.378906 -9.835938 9.953125 -8.171875 C 11.523438 -6.515625 13.769531 -5.6875 16.6875 -5.6875 Z M 16.6875 -5.6875 "></path></g></g></g><g fill="#005153" fill-opacity="1"><g transform="translate(160.371157, 35.757364)"><g></g></g></g><g fill="#005153" fill-opacity="1"><g transform="translate(169.50575, 35.757364)"><g><path d="M 26.96875 -15.453125 L 26.96875 -9.46875 C 26.25 -6.1875 24.6875 -3.703125 22.28125 -2.015625 C 19.875 -0.335938 17.1875 0.5 14.21875 0.5 C 10.488281 0.5 7.3125 -0.890625 4.6875 -3.671875 C 2.070312 -6.460938 0.765625 -9.832031 0.765625 -13.78125 C 0.765625 -17.789062 2.046875 -21.175781 4.609375 -23.9375 C 7.179688 -26.707031 10.382812 -28.09375 14.21875 -28.09375 C 18.695312 -28.09375 22.242188 -26.523438 24.859375 -23.390625 L 20.734375 -18.875 C 19.265625 -21.226562 17.210938 -22.40625 14.578125 -22.40625 C 12.640625 -22.40625 10.984375 -21.5625 9.609375 -19.875 C 8.242188 -18.195312 7.5625 -16.164062 7.5625 -13.78125 C 7.5625 -11.4375 8.242188 -9.429688 9.609375 -7.765625 C 10.984375 -6.109375 12.640625 -5.28125 14.578125 -5.28125 C 16.191406 -5.28125 17.59375 -5.765625 18.78125 -6.734375 C 19.976562 -7.710938 20.578125 -9.003906 20.578125 -10.609375 L 14.21875 -10.609375 L 14.21875 -15.453125 Z M 26.96875 -15.453125 "></path></g></g></g><g fill="#005153" fill-opacity="1"><g transform="translate(197.244094, 35.757364)"><g><path d="M 2 -27.59375 L 11.875 -27.59375 C 14.53125 -27.59375 16.691406 -26.882812 18.359375 -25.46875 C 20.035156 -24.050781 20.875 -22.03125 20.875 -19.40625 C 20.875 -17.375 20.363281 -15.671875 19.34375 -14.296875 C 18.332031 -12.929688 16.957031 -11.96875 15.21875 -11.40625 L 24.71875 0 L 16.734375 0 L 8.296875 -10.90625 L 8.296875 0 L 2 0 Z M 8.296875 -15.359375 L 9.03125 -15.359375 C 9.613281 -15.359375 10.101562 -15.367188 10.5 -15.390625 C 10.90625 -15.410156 11.363281 -15.488281 11.875 -15.625 C 12.382812 -15.757812 12.796875 -15.945312 13.109375 -16.1875 C 13.421875 -16.4375 13.6875 -16.796875 13.90625 -17.265625 C 14.132812 -17.734375 14.25 -18.300781 14.25 -18.96875 C 14.25 -19.632812 14.132812 -20.203125 13.90625 -20.671875 C 13.6875 -21.140625 13.421875 -21.492188 13.109375 -21.734375 C 12.796875 -21.984375 12.382812 -22.175781 11.875 -22.3125 C 11.363281 -22.445312 10.90625 -22.523438 10.5 -22.546875 C 10.101562 -22.566406 9.613281 -22.578125 9.03125 -22.578125 L 8.296875 -22.578125 Z M 8.296875 -15.359375 "></path></g></g></g><g fill="#005153" fill-opacity="1"><g transform="translate(221.20146, 35.757364)"><g><path d="M 0.765625 -13.8125 C 0.765625 -17.800781 2.125 -21.175781 4.84375 -23.9375 C 7.570312 -26.707031 10.851562 -28.09375 14.6875 -28.09375 C 18.539062 -28.09375 21.816406 -26.71875 24.515625 -23.96875 C 27.210938 -21.21875 28.5625 -17.832031 28.5625 -13.8125 C 28.5625 -9.78125 27.234375 -6.382812 24.578125 -3.625 C 21.929688 -0.875 18.632812 0.5 14.6875 0.5 C 10.644531 0.5 7.3125 -0.863281 4.6875 -3.59375 C 2.070312 -6.320312 0.765625 -9.726562 0.765625 -13.8125 Z M 7.5625 -13.8125 C 7.5625 -12.363281 7.785156 -11.039062 8.234375 -9.84375 C 8.679688 -8.65625 9.460938 -7.648438 10.578125 -6.828125 C 11.691406 -6.003906 13.0625 -5.59375 14.6875 -5.59375 C 17.03125 -5.59375 18.796875 -6.394531 19.984375 -8 C 21.179688 -9.601562 21.78125 -11.539062 21.78125 -13.8125 C 21.78125 -16.0625 21.171875 -17.992188 19.953125 -19.609375 C 18.734375 -21.234375 16.976562 -22.046875 14.6875 -22.046875 C 12.414062 -22.046875 10.660156 -21.234375 9.421875 -19.609375 C 8.179688 -17.992188 7.5625 -16.0625 7.5625 -13.8125 Z M 7.5625 -13.8125 "></path></g></g></g><g fill="#005153" fill-opacity="1"><g transform="translate(250.545901, 35.757364)"><g><path d="M 23.21875 -27.59375 L 23.21875 -9.796875 C 23.21875 -6.410156 22.300781 -3.847656 20.46875 -2.109375 C 18.644531 -0.367188 15.96875 0.5 12.4375 0.5 C 8.914062 0.5 6.238281 -0.367188 4.40625 -2.109375 C 2.582031 -3.847656 1.671875 -6.410156 1.671875 -9.796875 L 1.671875 -27.59375 L 7.96875 -27.59375 L 7.96875 -11.640625 C 7.96875 -9.410156 8.316406 -7.859375 9.015625 -6.984375 C 9.710938 -6.117188 10.851562 -5.6875 12.4375 -5.6875 C 14.019531 -5.6875 15.160156 -6.117188 15.859375 -6.984375 C 16.566406 -7.859375 16.921875 -9.410156 16.921875 -11.640625 L 16.921875 -27.59375 Z M 23.21875 -27.59375 "></path></g></g></g><g fill="#005153" fill-opacity="1"><g transform="translate(275.440146, 35.757364)"><g><path d="M 2 -27.59375 L 12.078125 -27.59375 C 14.890625 -27.59375 17.164062 -26.867188 18.90625 -25.421875 C 20.644531 -23.972656 21.515625 -21.863281 21.515625 -19.09375 C 21.515625 -16.332031 20.628906 -14.164062 18.859375 -12.59375 C 17.097656 -11.019531 14.835938 -10.234375 12.078125 -10.234375 L 8.296875 -10.234375 L 8.296875 0 L 2 0 Z M 8.296875 -15.25 L 10.0625 -15.25 C 11.46875 -15.25 12.625 -15.53125 13.53125 -16.09375 C 14.4375 -16.664062 14.890625 -17.601562 14.890625 -18.90625 C 14.890625 -20.21875 14.4375 -21.15625 13.53125 -21.71875 C 12.625 -22.289062 11.46875 -22.578125 10.0625 -22.578125 L 8.296875 -22.578125 Z M 8.296875 -15.25 "></path></g></g></g><g fill="#005153" fill-opacity="1"><g transform="translate(89.536309, 62.05241)"><g><path d="M 9.75 0.21875 C 8.570312 0.21875 7.476562 0.0234375 6.46875 -0.359375 C 5.46875 -0.753906 4.585938 -1.320312 3.828125 -2.0625 C 3.078125 -2.800781 2.492188 -3.695312 2.078125 -4.75 C 1.660156 -5.8125 1.453125 -7.007812 1.453125 -8.34375 C 1.453125 -9.664062 1.660156 -10.851562 2.078125 -11.90625 C 2.492188 -12.96875 3.078125 -13.863281 3.828125 -14.59375 C 4.585938 -15.332031 5.46875 -15.894531 6.46875 -16.28125 C 7.476562 -16.675781 8.570312 -16.875 9.75 -16.875 C 10.84375 -16.875 11.863281 -16.695312 12.8125 -16.34375 C 13.769531 -16 14.613281 -15.492188 15.34375 -14.828125 C 16.082031 -14.171875 16.664062 -13.378906 17.09375 -12.453125 L 15.15625 -11.640625 C 14.8125 -12.328125 14.367188 -12.910156 13.828125 -13.390625 C 13.285156 -13.867188 12.664062 -14.234375 11.96875 -14.484375 C 11.28125 -14.734375 10.539062 -14.859375 9.75 -14.859375 C 8.882812 -14.859375 8.078125 -14.710938 7.328125 -14.421875 C 6.578125 -14.128906 5.914062 -13.703125 5.34375 -13.140625 C 4.78125 -12.585938 4.34375 -11.90625 4.03125 -11.09375 C 3.71875 -10.289062 3.5625 -9.375 3.5625 -8.34375 C 3.5625 -7.300781 3.71875 -6.375 4.03125 -5.5625 C 4.34375 -4.75 4.78125 -4.0625 5.34375 -3.5 C 5.914062 -2.9375 6.578125 -2.507812 7.328125 -2.21875 C 8.078125 -1.9375 8.882812 -1.796875 9.75 -1.796875 C 10.539062 -1.796875 11.28125 -1.914062 11.96875 -2.15625 C 12.664062 -2.40625 13.285156 -2.769531 13.828125 -3.25 C 14.367188 -3.726562 14.8125 -4.304688 15.15625 -4.984375 L 17.09375 -4.203125 C 16.664062 -3.265625 16.082031 -2.460938 15.34375 -1.796875 C 14.613281 -1.140625 13.769531 -0.640625 12.8125 -0.296875 C 11.863281 0.046875 10.84375 0.21875 9.75 0.21875 Z M 9.75 0.21875 "></path></g></g></g><g fill="#005153" fill-opacity="1"><g transform="translate(107.688943, 62.05241)"><g><path d="M 9.75 0.21875 C 8.570312 0.21875 7.476562 0.0234375 6.46875 -0.359375 C 5.46875 -0.753906 4.585938 -1.320312 3.828125 -2.0625 C 3.078125 -2.800781 2.492188 -3.695312 2.078125 -4.75 C 1.660156 -5.8125 1.453125 -7.007812 1.453125 -8.34375 C 1.453125 -9.664062 1.660156 -10.851562 2.078125 -11.90625 C 2.492188 -12.96875 3.078125 -13.863281 3.828125 -14.59375 C 4.585938 -15.332031 5.46875 -15.894531 6.46875 -16.28125 C 7.476562 -16.675781 8.570312 -16.875 9.75 -16.875 C 10.90625 -16.875 11.984375 -16.675781 12.984375 -16.28125 C 13.992188 -15.894531 14.875 -15.332031 15.625 -14.59375 C 16.375 -13.863281 16.957031 -12.96875 17.375 -11.90625 C 17.800781 -10.851562 18.015625 -9.664062 18.015625 -8.34375 C 18.015625 -7.007812 17.800781 -5.8125 17.375 -4.75 C 16.957031 -3.695312 16.375 -2.800781 15.625 -2.0625 C 14.875 -1.320312 13.992188 -0.753906 12.984375 -0.359375 C 11.984375 0.0234375 10.90625 0.21875 9.75 0.21875 Z M 9.75 -1.78125 C 10.601562 -1.78125 11.398438 -1.921875 12.140625 -2.203125 C 12.890625 -2.492188 13.546875 -2.914062 14.109375 -3.46875 C 14.671875 -4.03125 15.109375 -4.71875 15.421875 -5.53125 C 15.734375 -6.351562 15.890625 -7.289062 15.890625 -8.34375 C 15.890625 -9.375 15.734375 -10.289062 15.421875 -11.09375 C 15.109375 -11.90625 14.671875 -12.585938 14.109375 -13.140625 C 13.546875 -13.703125 12.890625 -14.128906 12.140625 -14.421875 C 11.398438 -14.710938 10.601562 -14.859375 9.75 -14.859375 C 8.882812 -14.859375 8.078125 -14.710938 7.328125 -14.421875 C 6.578125 -14.128906 5.914062 -13.703125 5.34375 -13.140625 C 4.78125 -12.585938 4.34375 -11.90625 4.03125 -11.09375 C 3.71875 -10.289062 3.5625 -9.375 3.5625 -8.34375 C 3.5625 -7.289062 3.71875 -6.351562 4.03125 -5.53125 C 4.34375 -4.71875 4.78125 -4.03125 5.34375 -3.46875 C 5.914062 -2.914062 6.578125 -2.492188 7.328125 -2.203125 C 8.078125 -1.921875 8.882812 -1.78125 9.75 -1.78125 Z M 9.75 -1.78125 "></path></g></g></g><g fill="#005153" fill-opacity="1"><g transform="translate(127.188756, 62.05241)"><g><path d="M 13.796875 -16.65625 L 15.90625 -16.65625 L 15.90625 0 L 13.671875 0 L 4.6875 -13.46875 L 4.6875 0 L 2.609375 0 L 2.609375 -16.65625 L 4.828125 -16.65625 L 13.796875 -3.234375 Z M 13.796875 -16.65625 "></path></g></g></g><g fill="#005153" fill-opacity="1"><g transform="translate(145.74318, 62.05241)"><g><path d="M 7.765625 0.21875 C 6.617188 0.21875 5.585938 0.046875 4.671875 -0.296875 C 3.753906 -0.648438 3 -1.15625 2.40625 -1.8125 C 1.820312 -2.46875 1.429688 -3.257812 1.234375 -4.1875 L 3.328125 -4.6875 C 3.492188 -4.03125 3.785156 -3.46875 4.203125 -3 C 4.628906 -2.539062 5.148438 -2.191406 5.765625 -1.953125 C 6.378906 -1.710938 7.0625 -1.59375 7.8125 -1.59375 C 8.28125 -1.59375 8.734375 -1.644531 9.171875 -1.75 C 9.617188 -1.851562 10.015625 -2.015625 10.359375 -2.234375 C 10.710938 -2.453125 10.988281 -2.742188 11.1875 -3.109375 C 11.394531 -3.484375 11.492188 -3.929688 11.484375 -4.453125 C 11.472656 -4.972656 11.335938 -5.40625 11.078125 -5.75 C 10.828125 -6.101562 10.484375 -6.394531 10.046875 -6.625 C 9.617188 -6.863281 9.132812 -7.0625 8.59375 -7.21875 C 8.0625 -7.382812 7.503906 -7.546875 6.921875 -7.703125 C 6.398438 -7.847656 5.890625 -8 5.390625 -8.15625 C 4.890625 -8.320312 4.414062 -8.515625 3.96875 -8.734375 C 3.53125 -8.953125 3.144531 -9.21875 2.8125 -9.53125 C 2.476562 -9.851562 2.210938 -10.238281 2.015625 -10.6875 C 1.828125 -11.132812 1.734375 -11.664062 1.734375 -12.28125 C 1.734375 -13.050781 1.878906 -13.722656 2.171875 -14.296875 C 2.472656 -14.867188 2.878906 -15.347656 3.390625 -15.734375 C 3.898438 -16.117188 4.488281 -16.40625 5.15625 -16.59375 C 5.820312 -16.78125 6.523438 -16.875 7.265625 -16.875 C 7.992188 -16.875 8.691406 -16.789062 9.359375 -16.625 C 10.035156 -16.46875 10.644531 -16.222656 11.1875 -15.890625 C 11.738281 -15.566406 12.203125 -15.148438 12.578125 -14.640625 C 12.960938 -14.140625 13.234375 -13.535156 13.390625 -12.828125 L 11.40625 -12.328125 C 11.238281 -12.941406 10.957031 -13.453125 10.5625 -13.859375 C 10.164062 -14.265625 9.691406 -14.5625 9.140625 -14.75 C 8.585938 -14.945312 7.988281 -15.046875 7.34375 -15.046875 C 6.90625 -15.046875 6.476562 -14.992188 6.0625 -14.890625 C 5.65625 -14.785156 5.285156 -14.625 4.953125 -14.40625 C 4.617188 -14.1875 4.351562 -13.90625 4.15625 -13.5625 C 3.957031 -13.21875 3.859375 -12.800781 3.859375 -12.3125 C 3.859375 -11.84375 3.96875 -11.453125 4.1875 -11.140625 C 4.40625 -10.828125 4.703125 -10.566406 5.078125 -10.359375 C 5.460938 -10.148438 5.894531 -9.96875 6.375 -9.8125 C 6.863281 -9.664062 7.378906 -9.519531 7.921875 -9.375 C 8.460938 -9.238281 9.003906 -9.085938 9.546875 -8.921875 C 10.085938 -8.753906 10.601562 -8.554688 11.09375 -8.328125 C 11.59375 -8.097656 12.03125 -7.816406 12.40625 -7.484375 C 12.789062 -7.148438 13.09375 -6.738281 13.3125 -6.25 C 13.53125 -5.757812 13.640625 -5.175781 13.640625 -4.5 C 13.640625 -3.707031 13.488281 -3.015625 13.1875 -2.421875 C 12.882812 -1.828125 12.460938 -1.332031 11.921875 -0.9375 C 11.378906 -0.550781 10.753906 -0.257812 10.046875 -0.0625 C 9.335938 0.125 8.578125 0.21875 7.765625 0.21875 Z M 7.765625 0.21875 "></path></g></g></g><g fill="#005153" fill-opacity="1"><g transform="translate(160.811495, 62.05241)"><g><path d="M 8.3125 0.21875 C 7.457031 0.21875 6.664062 0.09375 5.9375 -0.15625 C 5.207031 -0.40625 4.566406 -0.773438 4.015625 -1.265625 C 3.460938 -1.765625 3.03125 -2.367188 2.71875 -3.078125 C 2.414062 -3.796875 2.265625 -4.609375 2.265625 -5.515625 L 2.265625 -16.65625 L 4.390625 -16.65625 L 4.390625 -5.8125 C 4.390625 -4.882812 4.5625 -4.117188 4.90625 -3.515625 C 5.25 -2.910156 5.71875 -2.457031 6.3125 -2.15625 C 6.914062 -1.851562 7.582031 -1.703125 8.3125 -1.703125 C 9.050781 -1.703125 9.71875 -1.851562 10.3125 -2.15625 C 10.90625 -2.457031 11.378906 -2.910156 11.734375 -3.515625 C 12.097656 -4.128906 12.28125 -4.894531 12.28125 -5.8125 L 12.28125 -16.65625 L 14.390625 -16.65625 L 14.390625 -5.515625 C 14.390625 -4.609375 14.234375 -3.796875 13.921875 -3.078125 C 13.617188 -2.367188 13.191406 -1.765625 12.640625 -1.265625 C 12.085938 -0.773438 11.441406 -0.40625 10.703125 -0.15625 C 9.972656 0.09375 9.175781 0.21875 8.3125 0.21875 Z M 8.3125 0.21875 "></path></g></g></g><g fill="#005153" fill-opacity="1"><g transform="translate(177.510605, 62.05241)"><g><path d="M 4.734375 -1.921875 L 10.515625 -1.921875 L 10.515625 0 L 2.609375 0 L 2.609375 -16.65625 L 4.734375 -16.65625 Z M 4.734375 -1.921875 "></path></g></g></g><g fill="#005153" fill-opacity="1"><g transform="translate(188.738269, 62.05241)"><g><path d="M 11.3125 -16.65625 L 11.3125 -14.71875 L 7.046875 -14.71875 L 7.046875 0 L 4.9375 0 L 4.9375 -14.71875 L 0.65625 -14.71875 L 0.65625 -16.65625 Z M 11.3125 -16.65625 "></path></g></g></g><g fill="#005153" fill-opacity="1"><g transform="translate(200.757711, 62.05241)"><g><path d="M 2.609375 0 L 2.609375 -16.65625 L 4.734375 -16.65625 L 4.734375 0 Z M 2.609375 0 "></path></g></g></g><g fill="#005153" fill-opacity="1"><g transform="translate(208.144739, 62.05241)"><g><path d="M 13.796875 -16.65625 L 15.90625 -16.65625 L 15.90625 0 L 13.671875 0 L 4.6875 -13.46875 L 4.6875 0 L 2.609375 0 L 2.609375 -16.65625 L 4.828125 -16.65625 L 13.796875 -3.234375 Z M 13.796875 -16.65625 "></path></g></g></g><g fill="#005153" fill-opacity="1"><g transform="translate(226.699158, 62.05241)"><g><path d="M 9.6875 0.21875 C 8.53125 0.21875 7.445312 0.03125 6.4375 -0.34375 C 5.4375 -0.726562 4.5625 -1.285156 3.8125 -2.015625 C 3.070312 -2.753906 2.492188 -3.648438 2.078125 -4.703125 C 1.660156 -5.753906 1.453125 -6.945312 1.453125 -8.28125 C 1.453125 -9.625 1.660156 -10.828125 2.078125 -11.890625 C 2.492188 -12.953125 3.078125 -13.851562 3.828125 -14.59375 C 4.585938 -15.332031 5.46875 -15.894531 6.46875 -16.28125 C 7.476562 -16.675781 8.570312 -16.875 9.75 -16.875 C 10.757812 -16.875 11.707031 -16.726562 12.59375 -16.4375 C 13.488281 -16.144531 14.296875 -15.710938 15.015625 -15.140625 C 15.734375 -14.566406 16.332031 -13.851562 16.8125 -13 L 14.96875 -12.015625 C 14.414062 -13.003906 13.675781 -13.734375 12.75 -14.203125 C 11.832031 -14.679688 10.832031 -14.921875 9.75 -14.921875 C 8.875 -14.921875 8.0625 -14.773438 7.3125 -14.484375 C 6.570312 -14.203125 5.921875 -13.78125 5.359375 -13.21875 C 4.804688 -12.65625 4.367188 -11.960938 4.046875 -11.140625 C 3.734375 -10.316406 3.578125 -9.375 3.578125 -8.3125 C 3.578125 -7.257812 3.734375 -6.320312 4.046875 -5.5 C 4.359375 -4.6875 4.796875 -3.992188 5.359375 -3.421875 C 5.921875 -2.859375 6.578125 -2.429688 7.328125 -2.140625 C 8.085938 -1.847656 8.910156 -1.703125 9.796875 -1.703125 C 10.796875 -1.703125 11.691406 -1.890625 12.484375 -2.265625 C 13.285156 -2.640625 13.941406 -3.195312 14.453125 -3.9375 C 14.972656 -4.675781 15.289062 -5.59375 15.40625 -6.6875 L 9.796875 -6.6875 L 9.796875 -8.484375 L 17.484375 -8.484375 L 17.484375 0 L 15.734375 0 L 15.734375 -3.125 C 15.179688 -2.0625 14.390625 -1.238281 13.359375 -0.65625 C 12.335938 -0.0703125 11.113281 0.21875 9.6875 0.21875 Z M 9.6875 0.21875 "></path></g></g></g></svg>